<?xml version="1.0" encoding="utf-8"?>
<!-- Generator: Adobe Illustrator 21.0.0, SVG Export Plug-In . SVG Version: 6.00 Build 0)  -->
<svg version="1.1" id="Layer_1" xmlns="http://www.w3.org/2000/svg" xmlns:xlink="http://www.w3.org/1999/xlink" x="0px" y="0px"
	 viewBox="0 0 102.7 82.2" style="enable-background:new 0 0 102.7 82.2;" xml:space="preserve">
<style type="text/css">
	.st0{fill:none;stroke:#00B0E0;stroke-width:2.1654;stroke-linecap:round;stroke-linejoin:round;stroke-miterlimit:10;}
</style>
<g id="VerticalLine">
	<g>
		<line class="st0" x1="51.7" y1="66" x2="51.7" y2="51.4"/>
	</g>
</g>
<path id="Horizontal1" class="st0" d="M51.7,59.9H35.8c-1.5,0-2.6-1.2-2.6-2.6v-6.2"/>
<path id="Horizontal2" class="st0" d="M70.4,51.1v6.2c0,1.5-1.2,2.6-2.6,2.6H51.7"/>
<g id="RightSnake">
	<circle class="st0" cx="70.4" cy="45.4" r="5.7"/>
</g>
<g id="MiddleSnake">
	<circle class="st0" cx="51.7" cy="45.4" r="5.7"/>
</g>
<g id="LeftSnake">
	<circle class="st0" cx="33.1" cy="45.4" r="5.7"/>
</g>
<g id="MainSnake">
	<circle class="st0" cx="51.7" cy="73.6" r="7.5"/>
</g>
<g id="Cloud">
	<g>
		<path class="st0" d="M75.8,20.1c-1-5.2-4.8-9.6-10.2-11.1C58,6.8,50,11.3,47.9,18.9"/>
		<path class="st0" d="M86.7,29.8c2.8-3,2.6-7.6-0.3-10.4c-2.9-2.8-7.6-2.6-10.4,0.3"/>
		<path class="st0" d="M79.1,59.5h5.4c9.5,0,17.2-7.7,17.2-17.2c0-7.9-5.4-14.6-12.7-16.6"/>
		<path class="st0" d="M22.2,29.6c-1.7-0.7-3.6-1-5.6-1c-8.5,0-15.5,6.9-15.5,15.5S8,59.6,16.6,59.6h8.6"/>
		<path class="st0" d="M15,28.7C12,17,19,4.7,30.6,1.8C39.8-0.6,49,3.3,54,10.6"/>
	</g>
</g>
</svg>
